<svg xmlns="http://www.w3.org/2000/svg" width="34.904" height="34.801" viewBox="0 0 34.904 34.801">
  <path id="Tracé_1681" data-name="Tracé 1681" d="M34.883,27.461a1.662,1.662,0,0,1-.495,1.484L29.44,33.811a2.585,2.585,0,0,1-.907.66,5.334,5.334,0,0,1-1.072.33h-.742a16.919,16.919,0,0,1-2.309-.247A21.26,21.26,0,0,1,20.534,33.4a36.623,36.623,0,0,1-5.113-2.8,35.993,35.993,0,0,1-6.1-5.2A43.186,43.186,0,0,1,5.03,20.534a30.054,30.054,0,0,1-2.721-4.288A24.752,24.752,0,0,1,.742,12.7,24.357,24.357,0,0,1,.165,9.9,8.093,8.093,0,0,1,0,8.082V7.34A7.659,7.659,0,0,1,.33,6.267,3.662,3.662,0,0,1,.99,5.36L5.938.412A1.97,1.97,0,0,1,7.092,0a1.393,1.393,0,0,1,.825.247,2.51,2.51,0,0,1,.66.66l3.958,7.5A1.809,1.809,0,0,1,12.7,9.731a2.042,2.042,0,0,1-.66,1.155L10.226,12.7c-.082.082-.082.165-.165.247,0,.082-.082.165-.082.247a6.606,6.606,0,0,0,.66,1.732,15.375,15.375,0,0,0,1.4,2.144,24.463,24.463,0,0,0,2.639,2.969,20.111,20.111,0,0,0,2.969,2.639,15.375,15.375,0,0,0,2.144,1.4,2.924,2.924,0,0,0,1.319.495l.495.082a.3.3,0,0,0,.247-.082c.082,0,.165-.082.247-.165l2.144-2.144a2.177,2.177,0,0,1,1.567-.577,1.759,1.759,0,0,1,.99.247h0l7.092,4.206A2.777,2.777,0,0,1,34.883,27.461Z" fill="#fff"/>
</svg>
