<svg id="icon" xmlns="http://www.w3.org/2000/svg" width="47.772" height="47.06" viewBox="0 0 47.772 47.06">
  <rect id="bg" width="47.772" height="47.06" transform="translate(0 0)" fill="rgba(255,96,96,0)"/>
  <path id="path" d="M20.824,20.824a9.412,9.412,0,1,1,9.412-9.412A9.412,9.412,0,0,1,20.824,20.824Zm17.812,8.7a11.021,11.021,0,0,1,.693,2.839q.19,1.311.3,2.633l.02.256,0,.122a4.278,4.278,0,0,1-4.273,4.278H6.273A4.278,4.278,0,0,1,2,35.37l0-.122.02-.256q.11-1.32.3-2.633a11.021,11.021,0,0,1,.693-2.839c1.315-2.855,11-6.985,17.812-6.985S37.32,26.665,38.635,29.52Z" transform="translate(2.777 2.706)" fill="#fff"/>
</svg>
